#!OML:ASF H:\Dans Jumps\Project 1\Capture day 1\Session 1\subject.ASF
:FULLY-SPECIFIED
:DEGREES
442
root 0.0993078 17.8806 2.83181 10.5354 1.3912 -1.83445
lowerback 0.715819 0.42964 0.0102111
upperback 3.61521 0.535668 1.38446
thorax 3.29879 0.244708 1.42933
lowerneck -12.4258 -0.620574 -1.63728
upperneck 33.1313 -1.09906 1.93828
head 13.188 -0.42198 0.887427
rclavicle -6.90777e-015 -6.16232e-015
rhumerus -24.8623 -12.4052 -82.7789
rradius 25.9641
rwrist 33.8098
rhand -24.5307 -29.6926
rfingers 7.12502
rthumb 1.96478 -59.6633
lclavicle -6.90777e-015 -6.16232e-015
lhumerus -26.3349 6.43598 85.2553
lradius 13.1356
lwrist 1.86644
lhand -27.2226 -8.00516
lfingers 7.12502
lthumb -0.635041 21.9736
rfemur -17.6999 -2.74056 21.2058
rtibia 19.6035
rfoot -9.70312 0.245631
rtoes 18.1803
lfemur -15.7272 3.72172 -16.6313
ltibia 16.9825
lfoot -6.60943 5.14541
ltoes 5.95824
443
root 0.0981814 17.8939 2.85591 10.6578 1.35872 -1.70429
lowerback 0.63406 0.442159 -0.126996
upperback 3.59127 0.554814 1.34802
thorax 3.31876 0.250791 1.46977
lowerneck -12.4226 -0.636308 -1.62021
upperneck 33.0824 -1.13453 1.96339
head 13.1673 -0.432098 0.888598
rclavicle 2.5842e-015 0
rhumerus -24.7863 -12.9012 -82.6338
rradius 25.6033
rwrist 34.3351
rhand -24.4694 -29.5768
rfingers 7.12502
rthumb 2.02406 -59.5469
lclavicle 2.5842e-015 0
lhumerus -26.077 6.69106 85.2517
lradius 13.0419
lwrist 1.5245
lhand -27.3094 -7.96504
lfingers 7.12502
lthumb -0.71895 22.0135
rfemur -17.7775 -2.73029 21.0557
rtibia 19.6516
rfoot -9.6182 0.271033
rtoes 18.1574
lfemur -15.7619 3.78938 -16.764
ltibia 16.9589
lfoot -6.51114 4.9741
ltoes 5.94486
444
root 0.0957411 17.9069 2.87877 10.7886 1.31202 -1.52561
lowerback 0.544936 0.455998 -0.320875
upperback 3.56571 0.577221 1.29459
thorax 3.34072 0.257094 1.52468
lowerneck -12.4135 -0.6466 -1.60344
upperneck 33.0242 -1.16025 1.984
head 13.141 -0.438641 0.889402
rclavicle 1.54058e-015 -1.59028e-015
rhumerus -24.7488 -13.3197 -82.5253
rradius 25.3245
rwrist 34.7032
rhand -24.4317 -29.4683
rfingers 7.12502
rthumb 2.0604 -59.4381
lclavicle 1.54058e-015 -1.59028e-015
lhumerus -25.8849 6.52679 85.396
lradius 13.1185
lwrist 1.51316
lhand -27.3558 -7.88406
lfingers 7.12502
lthumb -0.763696 22.0943
rfemur -17.9101 -2.68201 20.857
rtibia 19.7735
rfoot -9.5438 0.239046
rtoes 18.1213
lfemur -15.7715 3.90078 -16.9482
ltibia 16.853
lfoot -6.37128 4.73886
ltoes 5.8586
445
root 0.0921288 17.92 2.90024 10.9224 1.25762 -1.32002
lowerback 0.45338 0.470406 -0.54489
upperback 3.53623 0.601543 1.23038
thorax 3.35971 0.263665 1.58549
lowerneck -12.3968 -0.653192 -1.59197
upperneck 32.9723 -1.17933 2.00508
head 13.1157 -0.442925 0.892354
rclavicle -7.05686e-015 -6.36111e-015
rhumerus -24.7442 -13.6374 -82.4595
rradius 25.1209
rwrist 34.8875
rhand -24.4181 -29.3911
rfingers 7.12502
rthumb 2.07359 -59.3608
lclavicle -7.05686e-015 -6.36111e-015
lhumerus -25.7564 5.94109 85.6865
lradius 13.348
lwrist 1.87628
lhand -27.3637 -7.80567
lfingers 7.12502
lthumb -0.77137 22.1727
rfemur -18.0724 -2.58783 20.6327
rtibia 19.933
rfoot -9.46829 0.140053
rtoes 18.1125
lfemur -15.7572 4.02313 -17.1557
ltibia 16.6781
lfoot -6.19228 4.4706
ltoes 5.72474
446
root 0.0881316 17.9334 2.92055 11.051 1.20974 -1.1214
lowerback 0.363219 0.480854 -0.754312
upperback 3.50279 0.620812 1.16596
thorax 3.37405 0.268208 1.63777
lowerneck -12.3724 -0.655522 -1.58436
upperneck 32.9353 -1.18963 2.02091
head 13.0948 -0.444562 0.89536
rclavicle -4.72114e-015 -4.57205e-015
rhumerus -24.7648 -13.8319 -82.4399
rradius 24.9842
rwrist 34.8978
rhand -24.4309 -29.3606
rfingers 7.12502
rthumb 2.0612 -59.3304
lclavicle -4.72114e-015 -4.57205e-015
lhumerus -25.6921 5.01466 86.0954
lradius 13.7125
lwrist 2.60691
lhand -27.3273 -7.74276
lfingers 7.12502
lthumb -0.736241 22.2357
rfemur -18.2338 -2.48284 20.4225
rtibia 20.0927
rfoot -9.38422 0.000234975
rtoes 18.1047
lfemur -15.7206 4.12847 -17.3476
ltibia 16.459
lfoot -5.99078 4.19673
ltoes 5.5751
447
root 0.084516 17.9471 2.93993 11.1695 1.17246 -0.945003
lowerback 0.276611 0.484357 -0.92765
upperback 3.46694 0.630408 1.10811
thorax 3.38449 0.268945 1.67632
lowerneck -12.3395 -0.653915 -1.58817
upperneck 32.9143 -1.18984 2.03189
head 13.0789 -0.443873 0.900105
rclavicle 4.96962e-015 3.77691e-015
rhumerus -24.7947 -13.9046 -82.4604
rradius 24.8908
rwrist 34.7886
rhand -24.4643 -29.3746
rfingers 7.12502
rthumb 2.02891 -59.3447
lclavicle 4.96962e-015 3.77691e-015
lhumerus -25.6785 3.85649 86.5875
lradius 14.1699
lwrist 3.64963
lhand -27.2538 -7.75478
lfingers 7.12502
lthumb -0.665182 22.2239
rfemur -18.3724 -2.39486 20.2419
rtibia 20.2262
rfoot -9.29369 -0.144339
rtoes 18.1263
lfemur -15.6638 4.19728 -17.5076
ltibia 16.2188
lfoot -5.78325 3.94303
ltoes 5.43376
448
root 0.0818822 17.9605 2.95884 11.2704 1.14444 -0.80188
lowerback 0.197568 0.481279 -1.04873
upperback 3.42969 0.630297 1.05968
thorax 3.38994 0.266295 1.6949
lowerneck -12.3044 -0.646873 -1.6012
upperneck 32.9184 -1.1773 2.03446
head 13.0728 -0.439831 0.905281
rclavicle 4.02539e-015 3.18055e-015
rhumerus -24.8347 -13.8546 -82.5146
rradius 24.8355
rwrist 34.6156
rhand -24.5104 -29.4143
rfingers 7.12502
rthumb 1.98439 -59.3848
lclavicle 4.02539e-015 3.18055e-015
lhumerus -25.7009 2.58479 87.12
lradius 14.6877
lwrist 4.93204
lhand -27.1295 -7.82528
lfingers 7.12502
lthumb -0.545162 22.1538
rfemur -18.4713 -2.34558 20.1034
rtibia 20.3177
rfoot -9.19743 -0.269417
rtoes 18.153
lfemur -15.5878 4.23753 -17.6279
ltibia 15.9823
lfoot -5.59419 3.71871
ltoes 5.3196
449
root 0.0807957 17.9729 2.97754 11.3508 1.129 -0.698223
lowerback 0.125655 0.470147 -1.108
upperback 3.3956 0.618094 1.02365
thorax 3.39553 0.259222 1.6912
lowerneck -12.2691 -0.633893 -1.62186
upperneck 32.936 -1.15032 2.02499
head 13.072 -0.431991 0.909319
rclavicle -5.31749e-015 -1.35174e-014
rhumerus -24.8734 -13.6959 -82.5949
rradius 24.8102
rwrist 34.4331
rhand -24.5551 -29.4657
rfingers 7.12502
rthumb 1.94121 -59.4366
lclavicle -5.31749e-015 -1.35174e-014
lhumerus -25.7374 1.29796 87.6593
lradius 15.2236
lwrist 6.34269
lhand -26.9781 -7.97284
lfingers 7.12502
lthumb -0.398917 22.0065
rfemur -18.5233 -2.34865 20.0103
rtibia 20.3646
rfoot -9.10488 -0.350116
rtoes 18.2417
lfemur -15.4963 4.25497 -17.7055
ltibia 15.7677
lfoot -5.44186 3.52754
ltoes 5.2509
450
root 0.0811789 17.9835 2.99576 11.4082 1.12394 -0.638829
lowerback 0.0625096 0.453281 -1.10217
upperback 3.37066 0.596657 1.00057
thorax 3.40643 0.249139 1.66402
lowerneck -12.2401 -0.615561 -1.64982
upperneck 32.9566 -1.11027 2.00549
head 13.0736 -0.420622 0.912641
rclavicle 1.73937e-015 -4.96962e-015
rhumerus -24.8989 -13.4529 -82.695
rradius 24.8076
rwrist 34.2801
rhand -24.5949 -29.4993
rfingers 7.12502
rthumb 1.9028 -59.4706
lclavicle 1.73937e-015 -4.96962e-015
lhumerus -25.7598 0.087064 88.1697
lradius 15.7499
lwrist 7.76215
lhand -26.7783 -8.12325
lfingers 7.12502
lthumb -0.20593 21.8564
rfemur -18.5302 -2.39783 19.9675
rtibia 20.3695
rfoot -9.01918 -0.387722
rtoes 18.3261
lfemur -15.3997 4.26674 -17.7387
ltibia 15.5945
lfoot -5.33765 3.36551
ltoes 5.22292
451
root 0.0831496 17.9916 3.01409 11.4377 1.1275 -0.611506
lowerback 0.00836554 0.433142 -1.04229
upperback 3.35776 0.569495 0.98555
thorax 3.42526 0.237512 1.61463
lowerneck -12.2159 -0.594947 -1.68138
upperneck 32.9705 -1.06301 1.97766
head 13.0731 -0.407616 0.914315
rclavicle 1.59028e-015 5.1684e-015
rhumerus -24.9165 -13.1458 -82.8068
rradius 24.8334
rwrist 34.1664
rhand -24.6158 -29.5072
rfingers 7.12502
rthumb 1.88259 -59.4787
lclavicle 1.59028e-015 5.1684e-015
lhumerus -25.758 -0.990302 88.6273
lradius 16.244
lwrist 9.05272
lhand -26.5283 -8.16995
lfingers 7.12502
lthumb 0.0354917 21.8098
rfemur -18.4856 -2.49609 19.9583
rtibia 20.3388
rfoot -8.95366 -0.372642
rtoes 18.4143
lfemur -15.2976 4.28991 -17.7458
ltibia 15.476
lfoot -5.29153 3.2234
ltoes 5.21326
452
root 0.086289 17.9969 3.03228 11.4395 1.13552 -0.618883
lowerback -0.0353219 0.413294 -0.932329
upperback 3.35775 0.541332 0.978994
thorax 3.45181 0.226591 1.54579
lowerneck -12.1991 -0.575114 -1.71164
upperneck 32.9735 -1.0138 1.94026
head 13.0695 -0.394805 0.912193
rclavicle 1.32192e-014 1.35174e-014
rhumerus -24.9221 -12.8107 -82.9207
rradius 24.8767
rwrist 34.1089
rhand -24.6246 -29.4821
rfingers 7.12502
rthumb 1.87408 -59.4536
lclavicle 1.32192e-014 1.35174e-014
lhumerus -25.723 -1.88473 89.0133
lradius 16.6914
lwrist 10.1
lhand -26.2435 -8.08963
lfingers 7.12502
lthumb 0.310535 21.8899
rfemur -18.394 -2.61521 19.9816
rtibia 20.2781
rfoot -8.91312 -0.320087
rtoes 18.5075
lfemur -15.1997 4.33389 -17.7252
ltibia 15.4227
lfoot -5.30326 3.09917
ltoes 5.21683
453
root 0.090045 17.9992 3.05033 11.414 1.14449 -0.642442
lowerback -0.0681927 0.39501 -0.800609
upperback 3.36971 0.514463 0.977824
thorax 3.48462 0.216797 1.4703
lowerneck -12.1821 -0.557743 -1.74446
upperneck 32.9619 -0.9663 1.8998
head 13.0597 -0.383433 0.908935
rclavicle -5.51627e-015 1.59028e-015
rhumerus -24.918 -12.4666 -83.0289
rradius 24.9327
rwrist 34.0947
rhand -24.621 -29.421
rfingers 7.12502
rthumb 1.87758 -59.3924
lclavicle -5.51627e-015 1.59028e-015
lhumerus -25.654 -2.58608 89.3266
lradius 17.0782
lwrist 10.8302
lhand -25.9883 -7.95169
lfingers 7.12502
lthumb 0.557059 22.0273
rfemur -18.2573 -2.73011 20.0147
rtibia 20.1937
rfoot -8.90653 -0.252909
rtoes 18.5985
lfemur -15.108 4.39577 -17.6959
ltibia 15.4356
lfoot -5.36473 2.99229
ltoes 5.22227
